<svg xmlns="http://www.w3.org/2000/svg" xmlns:xlink="http://www.w3.org/1999/xlink" width="17" height="13" viewBox="0 0 17 13"><defs><path id="yjy0a" d="M2110.56 806.56c-.27.15-1.08.45-1.83.52a3.5 3.5 0 0 0 1.38-1.8 5.35 5.35 0 0 1-2.06.74 3.3 3.3 0 0 0-5.6 3.01 9.52 9.52 0 0 1-7-3.42 3.3 3.3 0 0 0 1 4.36c-.39.03-1.1-.04-1.44-.37-.02 1.15.53 2.67 2.55 3.22-.4.21-1.08.15-1.38.1.1.98 1.47 2.25 2.95 2.25a5.4 5.4 0 0 1-4.57 1.37 9.91 9.91 0 0 0 5.16 1.46 9.17 9.17 0 0 0 9.24-9.64v-.02-.04-.05a5.68 5.68 0 0 0 1.6-1.69z"/></defs><g><g transform="translate(-2094 -805)"><use fill="#2c87ce" xlink:href="#yjy0a"/></g></g></svg>