<svg xmlns="http://www.w3.org/2000/svg" xmlns:xlink="http://www.w3.org/1999/xlink" width="18" height="19" viewBox="0 0 18 19"><defs><path id="f4epa" d="M2218.87 814.84v4c0 1.67-1.24 3.03-2.77 3.03h-11.62c-1.53 0-2.76-1.36-2.76-3.04v-4c0-1.67 1.23-3.04 2.76-3.04h11.62c1.53 0 2.77 1.37 2.77 3.05zm-12.08-1.12h-3.37v.96h1.14v5.64h1.1v-5.64h1.13zm3.21 1.73h-.97v3.7c-.1.1-.2.2-.3.26-.11.07-.2.1-.28.1-.09 0-.15-.02-.2-.07-.04-.05-.06-.14-.06-.25v-3.74h-.97v4.08c0 .29.06.5.17.65.12.14.28.22.5.22.2 0 .38-.05.58-.16.2-.1.38-.25.56-.45v.53h.97zm3.54 1.16c0-.4-.08-.7-.25-.9-.16-.22-.4-.32-.7-.32-.15 0-.3.04-.45.12-.15.07-.29.19-.42.34v-2.13h-.99v6.6h.99v-.37a1.16 1.16 0 0 0 .93.44c.28 0 .5-.1.66-.28.15-.18.23-.45.23-.8zm3.38.15c0-.46-.12-.81-.36-1.06s-.59-.37-1.03-.37c-.44 0-.8.13-1.07.4-.27.26-.41.61-.41 1.03v2.2c0 .46.12.83.37 1.1.25.26.6.4 1.04.4.48 0 .85-.13 1.09-.38.25-.25.37-.63.37-1.13v-.25h-1v.22c0 .29-.04.47-.1.56-.07.08-.18.13-.34.13-.16 0-.27-.05-.33-.15-.07-.1-.1-.28-.1-.54V818h1.87zm-1.1-.44c.06.08.1.23.1.43v.5h-.87v-.5c0-.2.03-.35.1-.43.07-.1.18-.14.34-.14.15 0 .26.05.32.14zm-3.39-.03c.07.09.1.21.1.38v2.51c0 .16-.03.27-.08.34-.06.07-.14.1-.26.1a.58.58 0 0 1-.24-.05.84.84 0 0 1-.23-.17v-3.04a.72.72 0 0 1 .2-.15.48.48 0 0 1 .2-.05c.14 0 .24.05.31.13zm-6.43-8.37l-1.47-4.4h1.24l.8 2.92h.08l.77-2.91h1.25l-1.44 4.25v3.03H2206zm3.2 2.62a1.42 1.42 0 0 1-.44-1.1v-2.78c0-.41.15-.74.44-1 .3-.24.7-.36 1.2-.36.45 0 .82.13 1.11.39.29.26.43.6.43 1v2.78c0 .46-.14.82-.42 1.08-.29.26-.68.39-1.18.39-.48 0-.86-.13-1.15-.4zm.69-1c0 .15.04.27.12.35.07.08.19.12.33.12a.5.5 0 0 0 .35-.12c.1-.09.14-.2.14-.34v-2.93a.35.35 0 0 0-.14-.28.54.54 0 0 0-.35-.11.49.49 0 0 0-.33.1.37.37 0 0 0-.12.3zm3.14 1.1c-.13-.16-.2-.4-.2-.72v-4.48h1.1v4.11c0 .13.03.22.07.28.04.06.12.08.22.08.08 0 .19-.03.31-.11s.24-.17.34-.29v-4.07h1.1v5.37h-1.1v-.6c-.2.22-.41.39-.63.5-.22.11-.43.17-.64.17-.25 0-.44-.08-.57-.24z"/></defs><g><g transform="translate(-2201 -803)"><use fill="#2c87ce" xlink:href="#f4epa"/></g></g></svg>